<svg width="12" height="12" viewBox="0 0 12 12" fill="none" xmlns="http://www.w3.org/2000/svg">
<path d="M5.99694 0C6.23711 0 6.45393 0.0782831 6.63183 0.245706C6.8025 0.405701 6.91925 0.631408 7.00209 0.893114C7.16553 1.41195 7.22446 2.17307 7.22446 3.16733V3.97873L10.564 6.1558L10.5768 6.16494C10.9126 6.41236 11.0093 6.80435 10.9993 7.14263L10.9999 8.28545C10.9999 8.33215 10.9887 8.37813 10.9674 8.41938C10.9461 8.46062 10.9153 8.49587 10.8776 8.52203C10.84 8.5482 10.7967 8.56448 10.7515 8.56946C10.7063 8.57444 10.6607 8.56795 10.6185 8.55058L7.05712 7.08206L6.9048 9.54084L8.0745 10.2237L8.08339 10.2282C8.29632 10.3631 8.40417 10.6128 8.40417 10.8448C8.40419 10.864 8.40233 10.8831 8.39861 10.9019L8.2246 11.7716C8.21655 11.8111 8.20049 11.8484 8.17746 11.8811C8.15443 11.9138 8.12495 11.9411 8.09096 11.9612C8.05696 11.9814 8.0192 11.994 7.98015 11.9981C7.94111 12.0023 7.90165 11.9979 7.86435 11.9853L5.99639 11.3436L4.13565 11.9853C4.09836 11.9981 4.05885 12.0026 4.01974 11.9985C3.98064 11.9945 3.94281 11.9819 3.90876 11.9617C3.87472 11.9415 3.84523 11.9142 3.82224 11.8814C3.79925 11.8486 3.78328 11.8112 3.7754 11.7716L3.60139 10.9019C3.59767 10.8831 3.59581 10.864 3.59583 10.8448C3.59583 10.6128 3.70368 10.3631 3.91716 10.2282L3.92495 10.2237L5.0952 9.54084L4.94232 7.08263L1.38151 8.55058C1.33936 8.56783 1.29375 8.57422 1.24865 8.56919C1.20355 8.56415 1.16033 8.54785 1.12277 8.5217C1.08521 8.49555 1.05445 8.46035 1.03317 8.41916C1.01189 8.37798 1.00074 8.33208 1.00069 8.28545V7.14263C0.990684 6.80435 1.08742 6.41236 1.42321 6.16551L1.43599 6.1558L4.77554 3.97873V3.1679C4.77554 2.17307 4.83336 1.41253 4.99513 0.893685C5.07686 0.63198 5.19249 0.406844 5.36261 0.246278C5.54051 0.0782832 5.75733 0.00057141 5.99694 0Z" fill="#64758B"/>
</svg>
